<?xml version="1.0" encoding="iso-8859-1"?>
<!-- Generator: Adobe Illustrator 19.0.0, SVG Export Plug-In . SVG Version: 6.00 Build 0)  -->
<svg version="1.1" id="Layer_1" xmlns="http://www.w3.org/2000/svg" xmlns:xlink="http://www.w3.org/1999/xlink" x="0px" y="0px"
	 viewBox="0 0 512 512" style="enable-background:new 0 0 512 512; fill: white" xml:space="preserve">
<g>
	<g>
		<g>
			<path d="M417.351,227.979c-3.613-1.979-8.083-1.677-11.425,0.771c-27.278,19.938-49.084,34.885-63.016,43.219
				c-24.166,14.458-60.468,32.385-86.681,44.885c-3.3,1.583-5.577,4.74-5.995,8.375c-0.439,3.625,1.023,7.229,3.864,9.531
				c47.288,38.271,101.219,74.802,129.144,93.167c1.775,1.156,3.822,1.76,5.89,1.76c0.919,0,1.859-0.115,2.757-0.365
				c2.966-0.781,5.431-2.792,6.809-5.521c7.645-15.198,12.783-31.135,15.268-47.354l1.984-13.188l6.976-125.313
				C423.158,233.823,420.985,229.948,417.351,227.979z"/>
			<path d="M370.543,445.156c-30.056-19.74-105.835-70.896-160.057-119.385C165.997,286,129.298,244.292,106.343,216.302
				c-2.924-3.583-7.874-4.854-12.135-3.198c-4.324,1.677-7.06,5.927-6.809,10.542l7.874,140.646l1.88,12.156
				C109.247,454.99,175.876,512,255.56,512c44.051,0,86.66-18.458,116.905-50.646c2.151-2.292,3.175-5.417,2.799-8.542
				C374.909,449.688,373.175,446.885,370.543,445.156z"/>
			<path d="M255.56,0C167.96,0,94.856,65.438,85.498,152.219c-0.418,3.927-0.251,6.406,3.029,8.625
				c0.752,0.823,2.569,3.146,5.368,6.677c15.999,20.25,64.708,81.875,124.257,136.344c2.005,1.844,4.595,2.802,7.227,2.802
				c1.546,0,3.091-0.333,4.533-1c20.595-9.615,71.789-33.927,101.991-52c25.566-15.281,71.371-49.344,89.877-63.281
				c2.527-1.885,4.073-4.781,4.24-7.917l0.648-11.802C426.667,76.563,349.907,0,255.56,0z M357.552,169.354
				C348.236,219.167,305.418,256,255.56,256s-92.676-36.833-101.991-86.646c-9.587-5.406-15.644-15.5-15.644-26.875
				c0-12.958,8.146-24.323,19.822-28.833c11.783-33.77,39.572-58.753,72.653-67.422c-1.794,3.333-3.378,6.805-4.77,10.557
				c-3.425,9.219-2.757,19.281,1.838,28.344c4.992,9.792,13.932,17.135,24.563,20.146c3.008,0.854,6.078,1.281,9.107,1.281
				c5.556,0,11.07-1.417,16.041-4.188c7.728-4.292,13.326-11.333,15.749-19.833c4.282-15.146-4.553-30.969-19.717-35.26
				c-5.786-1.656-11.613,1.677-13.221,7.344c-1.608,5.667,1.692,11.573,7.373,13.177c3.843,1.083,6.057,5.094,4.971,8.917
				c-0.856,3.01-2.82,5.5-5.556,7.021c-2.736,1.531-5.911,1.896-8.898,1.021c-4.825-1.375-9.065-4.844-11.321-9.281
				c-1.337-2.615-2.569-6.698-0.877-11.281c2.841-7.641,6.235-14.176,15.933-21.025c41.258,2.546,77.765,30.37,91.761,70.483
				c11.676,4.51,19.822,15.875,19.822,28.833C373.196,153.854,367.139,163.948,357.552,169.354z"/>
			<circle cx="212.779" cy="149.333" r="10.688"/>
			<circle cx="298.347" cy="149.333" r="10.688"/>
			<path d="M234.172,198.249c0,8.331,9.575,15.085,21.388,15.085s21.388-6.754,21.388-15.085
				C276.949,189.917,234.172,189.917,234.172,198.249z"/>
		</g>
	</g>
</g>
<g>
</g>
<g>
</g>
<g>
</g>
<g>
</g>
<g>
</g>
<g>
</g>
<g>
</g>
<g>
</g>
<g>
</g>
<g>
</g>
<g>
</g>
<g>
</g>
<g>
</g>
<g>
</g>
<g>
</g>
</svg>
